<svg width="121" height="41" viewBox="0 0 121 41" fill="none" xmlns="http://www.w3.org/2000/svg">
<rect width="40.2376" height="40.1692" rx="12" fill="#3B71FE"/>
<path d="M12.5124 22.3138L17.4279 22.1693L19.0206 18.7185C19.191 18.3492 18.8733 17.9456 18.4763 18.0342C17.1581 18.3282 15.3028 18.8151 14.2612 19.3359C13.2611 19.836 12.511 20.8675 12.0813 21.6566C11.9105 21.9703 12.1553 22.3243 12.5124 22.3138Z" fill="white"/>
<path d="M28.619 31.628L24.4042 24.2522C24.0338 23.604 23.1092 23.5743 22.6953 24.1956C21.4016 26.1376 19.6037 28.7833 18.7615 29.8359C17.6949 31.1693 16.5393 31.3915 16.0949 31.3359C14.8727 31.2804 12.0949 31.0693 10.7616 30.6693C9.42823 30.2693 10.1217 29.4507 10.7616 29.1693C11.5254 28.8333 13.4282 28.2359 14.7616 27.8359C16.0949 27.436 17.0949 25.8915 17.4282 25.1693L22.4282 15.6692C23.706 13.0581 26.7282 7.86919 28.5949 8.00252C30.4616 8.13585 29.9282 10.1692 29.4282 11.1692L26.7571 16.9828C26.6528 17.2099 26.6367 17.466 26.713 17.704C27.6984 20.7776 29.5828 26.6717 30.0949 28.3359C30.5188 29.7134 29.918 30.9716 29.3468 31.709C29.1509 31.9619 28.7777 31.9057 28.619 31.628Z" fill="white"/>
<path d="M65.5329 26.5845H69.0329L64.2729 12.5845H60.1929L55.4329 26.5845H58.9329L59.6329 24.3845H64.8329L65.5329 26.5845ZM60.5929 21.3845L62.2329 16.2445L63.8729 21.3845H60.5929ZM71.6266 15.7045C72.6066 15.7045 73.4266 14.8845 73.4266 13.9045C73.4266 12.9245 72.6066 12.1045 71.6266 12.1045C70.6466 12.1045 69.8266 12.9245 69.8266 13.9045C69.8266 14.8845 70.6466 15.7045 71.6266 15.7045ZM70.1266 26.5845H73.1266V16.5845H70.1266V26.5845ZM78.3219 18.3645V16.5845H75.3219V26.5845H78.3219V22.0645C78.3219 20.0845 80.0819 19.5845 81.3219 19.7845V16.3845C80.0619 16.3845 78.7219 17.0245 78.3219 18.3645ZM88.8772 19.4645V16.5845H86.8172V13.7845L83.8172 14.6845V16.5845H82.2172V19.4645H83.8172V23.0045C83.8172 25.8045 84.9572 26.9845 88.8772 26.5845V23.8645C87.5572 23.9445 86.8172 23.8645 86.8172 23.0045V19.4645H88.8772ZM93.7711 18.3645V16.5845H90.7711V26.5845H93.7711V22.0645C93.7711 20.0845 95.5311 19.5845 96.7711 19.7845V16.3845C95.5111 16.3845 94.1711 17.0245 93.7711 18.3645ZM105.141 16.5845V17.5245C104.481 16.7645 103.501 16.3045 102.161 16.3045C99.5405 16.3045 97.3805 18.6045 97.3805 21.5845C97.3805 24.5645 99.5405 26.8645 102.161 26.8645C103.501 26.8645 104.481 26.4045 105.141 25.6445V26.5845H108.141V16.5845H105.141ZM102.761 24.0245C101.381 24.0245 100.381 23.0845 100.381 21.5845C100.381 20.0845 101.381 19.1445 102.761 19.1445C104.141 19.1445 105.141 20.0845 105.141 21.5845C105.141 23.0845 104.141 24.0245 102.761 24.0245ZM116.721 16.5845L114.641 22.9245L112.561 16.5845H109.241L112.941 26.5845H116.341L120.041 16.5845H116.721Z" fill="#353945"/>
</svg>
